<svg width="737" height="737" viewBox="0 0 737 737" fill="none" xmlns="http://www.w3.org/2000/svg">
<path d="M737 563.657H0V564.026H737V563.657Z" fill="#EBEBEB"/>
<path d="M663.153 587.374H631.196V587.743H663.153V587.374Z" fill="#EBEBEB"/>
<path d="M508.044 579.739H457.765V580.107H508.044V579.739Z" fill="#EBEBEB"/>
<path d="M650.211 573.695H584.574V574.064H650.211V573.695Z" fill="#EBEBEB"/>
<path d="M255.031 581.124H238.611V581.493H255.031V581.124Z" fill="#EBEBEB"/>
<path d="M225.478 581.124H168.891V581.493H225.478V581.124Z" fill="#EBEBEB"/>
<path d="M138.571 574.904H97.741V575.273H138.571V574.904Z" fill="#EBEBEB"/>
<path d="M349.338 497.917H64.7233C62.4937 497.913 60.3567 497.025 58.7815 495.447C57.2062 493.869 56.3215 491.73 56.3215 489.501V89.4128C56.3409 87.1959 57.2342 85.0762 58.8074 83.5142C60.3805 81.9521 62.5064 81.0737 64.7233 81.0699H349.338C351.57 81.0699 353.711 81.9567 355.289 83.5351C356.868 85.1135 357.755 87.2543 357.755 89.4865V489.501C357.755 491.733 356.868 493.874 355.289 495.452C353.711 497.03 351.57 497.917 349.338 497.917ZM64.7233 81.3647C62.5914 81.3687 60.5482 82.2183 59.042 83.7272C57.5359 85.236 56.69 87.2809 56.69 89.4128V489.501C56.69 491.633 57.5359 493.677 59.042 495.186C60.5482 496.695 62.5914 497.545 64.7233 497.549H349.338C351.471 497.545 353.516 496.696 355.025 495.187C356.533 493.679 357.382 491.634 357.386 489.501V89.4128C357.382 87.2795 356.533 85.2347 355.025 83.7263C353.516 82.2178 351.471 81.3686 349.338 81.3647H64.7233Z" fill="#EBEBEB"/>
<path d="M668.179 497.917H383.55C381.319 497.913 379.18 497.025 377.603 495.448C376.025 493.87 375.137 491.732 375.133 489.501V89.4128C375.156 87.1946 376.053 85.0749 377.628 83.5132C379.204 81.9516 381.331 81.0737 383.55 81.0699H668.179C670.393 81.0776 672.516 81.9577 674.085 83.5193C675.655 85.081 676.547 87.1985 676.566 89.4128V489.501C676.566 491.728 675.683 493.864 674.111 495.442C672.539 497.019 670.406 497.909 668.179 497.917ZM383.55 81.3647C381.416 81.3686 379.372 82.2178 377.863 83.7263C376.355 85.2347 375.505 87.2795 375.502 89.4128V489.501C375.505 491.634 376.355 493.679 377.863 495.187C379.372 496.696 381.416 497.545 383.55 497.549H668.179C670.312 497.545 672.357 496.696 673.866 495.187C675.374 493.679 676.223 491.634 676.227 489.501V89.4128C676.223 87.2795 675.374 85.2347 673.866 83.7263C672.357 82.2178 670.312 81.3686 668.179 81.3647H383.55Z" fill="#EBEBEB"/>
<path d="M318.487 296.097L319.15 276.729L307.27 272.837C306.759 266.274 305.694 259.765 304.086 253.38L314.168 246.01L307.329 227.821L294.859 228.824C291.902 222.963 288.45 217.366 284.541 212.094L290.997 201.319L277.731 187.154L266.588 192.858C261.577 188.575 256.223 184.71 250.58 181.302L252.378 168.92L234.69 160.902L226.583 170.394C220.329 168.394 213.92 166.915 207.421 165.972L204.473 153.841L185.046 153.178L181.213 165.073C174.656 165.589 168.153 166.649 161.771 168.242L154.284 158.219L136.094 165.014L137.097 177.484C131.239 180.486 125.643 183.972 120.367 187.905L109.518 181.302L95.294 194.568L100.998 205.77C96.714 210.756 92.8674 216.102 89.5012 221.748L77.1344 219.891L69.0568 237.579L78.6084 245.671C76.5935 251.922 75.1142 258.332 74.1864 264.833L61.9079 267.914L61.2446 287.282L73.184 291.174C73.6779 297.734 74.7382 304.239 76.3531 310.616L66.271 317.986L73.1251 336.19L85.5951 335.187C88.5442 341.052 91.9965 346.65 95.9131 351.917L89.4423 362.692L102.708 376.857L113.852 371.153C118.849 375.435 124.194 379.296 129.83 382.695L127.973 395.061L145.661 403.095L153.812 393.602C160.066 395.621 166.475 397.124 172.974 398.098L175.922 410.229L195.349 410.892L199.182 398.997C205.743 398.475 212.251 397.415 218.638 395.828L226.008 405.851L244.198 399.056L243.254 386.586C249.101 383.565 254.695 380.08 259.984 376.165L270.7 382.621L284.924 369.355L279.22 358.152C283.505 353.168 287.352 347.822 290.717 342.174L303.084 344.031L311.161 326.343L301.61 318.236C303.659 311.991 305.163 305.58 306.106 299.074L318.487 296.097ZM187.611 358.845C172.411 358.332 157.704 353.322 145.352 344.449C133 335.576 123.557 323.239 118.217 308.999C112.877 294.758 111.881 279.254 115.354 264.447C118.827 249.641 126.614 236.197 137.729 225.816C148.844 215.435 162.788 208.584 177.797 206.129C192.807 203.675 208.207 205.727 222.05 212.026C235.892 218.325 247.556 228.588 255.565 241.516C263.575 254.445 267.569 269.459 267.045 284.659C266.345 305.029 257.584 324.287 242.688 338.199C227.792 352.111 207.981 359.537 187.611 358.845Z" fill="#EBEBEB"/>
<path d="M650.034 232.037L654.913 227.482L652.982 223.635C654.455 221.911 655.781 220.067 656.947 218.122L661.222 218.756L663.978 212.654L660.706 209.868C661.411 207.71 661.928 205.496 662.253 203.25L666.454 202.203L666.661 195.511L662.563 194.185C662.383 191.918 662.018 189.67 661.472 187.463L664.936 184.884L662.578 178.619L658.288 178.958C657.254 176.938 656.056 175.005 654.707 173.18L656.932 169.495L652.348 164.602L648.516 166.562C646.789 165.092 644.946 163.766 643.003 162.597L643.622 158.322L637.534 155.536L634.734 158.823C632.572 158.15 630.359 157.657 628.116 157.349L627.069 153.163L620.377 152.913L619.036 157.04C616.778 157.212 614.539 157.577 612.344 158.131L609.779 154.667L603.5 157.01L603.854 161.315C601.827 162.339 599.894 163.537 598.075 164.896L594.361 162.671L589.467 167.225L591.369 170.984C589.885 172.703 588.553 174.547 587.389 176.497L583.129 175.863L580.358 181.965L583.645 184.766C582.964 186.92 582.47 189.13 582.171 191.369L577.955 192.416L577.749 199.108L581.861 200.434C582.029 202.701 582.389 204.95 582.938 207.156L579.459 209.721L581.817 215.985L586.121 215.661C587.156 217.681 588.354 219.614 589.703 221.439L587.477 225.124L592.062 230.018L595.894 228.057C597.617 229.532 599.461 230.858 601.407 232.022L600.773 236.282L606.875 239.068L609.676 235.796C611.839 236.462 614.052 236.955 616.294 237.27L617.341 241.456L624.033 241.706L625.374 237.579C627.632 237.408 629.871 237.043 632.066 236.489L634.631 239.952L640.91 237.609L640.571 233.305C642.592 232.279 644.52 231.081 646.334 229.723L650.034 232.037ZM615.218 203.839C613.931 202.46 613.082 200.73 612.778 198.868C612.474 197.006 612.73 195.096 613.512 193.379C614.294 191.662 615.567 190.216 617.172 189.223C618.776 188.23 620.639 187.736 622.524 187.802C624.409 187.868 626.233 188.491 627.764 189.594C629.295 190.697 630.464 192.228 631.124 193.996C631.784 195.763 631.906 197.686 631.472 199.523C631.039 201.359 630.071 203.025 628.69 204.311C627.774 205.175 626.696 205.849 625.518 206.293C624.339 206.737 623.085 206.943 621.826 206.899C620.568 206.855 619.331 206.562 618.186 206.037C617.042 205.512 616.013 204.765 615.159 203.839H615.218Z" fill="#EBEBEB"/>
<path d="M471.68 430.909L456.439 420.37C454.945 414.882 452.89 409.562 450.307 404.495L454.213 389.165L432.103 365.493L416.538 368.338C411.654 365.412 406.483 362.997 401.105 361.13L391.642 345.196L359.214 344.091L348.689 359.332C343.208 360.825 337.894 362.874 332.829 365.449L317.5 361.543L293.827 383.653L296.672 399.189C293.749 404.082 291.339 409.263 289.479 414.651L273.545 424.114L272.439 456.542L287.695 467.066C289.164 472.584 291.215 477.93 293.812 483.015L289.862 498.212L311.972 521.884L327.434 519.054C332.354 521.983 337.56 524.403 342.97 526.277L352.419 542.181L384.847 543.302L395.356 528.061C400.887 526.567 406.251 524.512 411.364 521.929L426.605 525.82L450.292 503.71L447.447 488.174C450.379 483.28 452.79 478.093 454.641 472.697L470.575 463.234L471.68 430.909ZM370.785 480.126C363.586 479.88 356.621 477.505 350.772 473.301C344.923 469.097 340.452 463.253 337.924 456.508C335.395 449.763 334.924 442.42 336.569 435.407C338.214 428.395 341.901 422.027 347.165 417.11C352.428 412.192 359.032 408.946 366.14 407.781C373.248 406.617 380.542 407.586 387.1 410.567C393.658 413.547 399.184 418.405 402.981 424.526C406.778 430.648 408.674 437.757 408.431 444.956C408.092 454.612 403.937 463.738 396.876 470.332C389.815 476.926 380.426 480.448 370.77 480.126H370.785Z" fill="#EBEBEB"/>
<path d="M506.393 339.02H506.289L480.76 338.15C480.243 338.141 479.736 338.001 479.288 337.743C478.839 337.485 478.463 337.118 478.195 336.676L471.311 325.105C467.601 323.748 464.012 322.082 460.581 320.123L449.57 322.025C449.057 322.119 448.528 322.081 448.034 321.917C447.539 321.752 447.094 321.464 446.74 321.081L429.302 302.421C428.936 302.034 428.676 301.56 428.547 301.043C428.418 300.527 428.424 299.986 428.565 299.473L431.351 288.55C429.625 285.011 428.214 281.326 427.136 277.539L416.036 269.875C415.606 269.579 415.257 269.18 415.023 268.713C414.788 268.247 414.675 267.728 414.695 267.207L415.565 241.677C415.582 241.162 415.725 240.658 415.982 240.211C416.239 239.764 416.602 239.387 417.039 239.112L428.639 232.229C429.977 228.527 431.639 224.951 433.606 221.542L431.572 210.443C431.477 209.928 431.514 209.397 431.679 208.899C431.844 208.402 432.132 207.954 432.516 207.598L451.177 190.175C451.562 189.808 452.036 189.546 452.552 189.415C453.069 189.283 453.61 189.286 454.125 189.424L465.091 192.224C468.622 190.497 472.296 189.082 476.072 187.994L483.737 176.895C484.022 176.454 484.42 176.097 484.889 175.861C485.358 175.625 485.881 175.519 486.405 175.553L511.92 176.438C512.439 176.449 512.947 176.589 513.397 176.847C513.848 177.104 514.227 177.47 514.5 177.912L521.383 189.497C525.067 190.85 528.627 192.517 532.025 194.48L543.169 192.431C543.682 192.335 544.211 192.372 544.706 192.537C545.201 192.702 545.646 192.99 545.999 193.374L563.436 212.035C563.8 212.423 564.058 212.897 564.187 213.413C564.316 213.929 564.312 214.469 564.173 214.983L561.373 225.935C563.1 229.467 564.52 233.141 565.618 236.916L576.702 244.581C577.133 244.876 577.482 245.276 577.716 245.742C577.951 246.209 578.063 246.727 578.044 247.249L577.174 272.764C577.157 273.281 577.013 273.786 576.756 274.236C576.5 274.685 576.137 275.065 575.7 275.343L564.1 282.227C562.753 285.92 561.091 289.49 559.132 292.899L561.166 304.013C561.262 304.526 561.225 305.054 561.06 305.549C560.895 306.044 560.607 306.489 560.223 306.843L541.444 324.28C541.058 324.646 540.583 324.906 540.067 325.035C539.551 325.164 539.01 325.158 538.496 325.017L527.589 322.231C524.035 323.95 520.341 325.365 516.548 326.462L508.957 337.546C508.684 337.984 508.307 338.347 507.859 338.604C507.412 338.861 506.908 339.004 506.393 339.02ZM482.676 331.989L504.786 332.741L512.156 322.143C512.564 321.524 513.19 321.082 513.91 320.905C518.058 319.77 522.082 318.225 525.923 316.291C526.593 315.968 527.354 315.89 528.075 316.07L538.393 318.708L554.607 303.6L552.75 292.943C552.607 292.198 552.743 291.426 553.133 290.776C555.322 287.126 557.125 283.258 558.513 279.235C558.747 278.505 559.24 277.887 559.899 277.495L570.998 270.921L571.75 248.811L561.137 241.441C560.578 241.059 560.159 240.506 559.943 239.864C559.943 239.79 559.943 239.702 559.943 239.613C558.807 235.539 557.267 231.589 555.344 227.821C555.003 227.147 554.919 226.372 555.108 225.64L557.761 215.204L542.653 198.99L532.055 200.936C531.315 201.07 530.551 200.934 529.903 200.552C526.246 198.359 522.374 196.546 518.347 195.143C518.116 195.069 517.893 194.97 517.683 194.848C517.259 194.583 516.905 194.219 516.652 193.787L510.004 182.658L487.894 181.892L480.524 192.519C480.084 193.142 479.436 193.587 478.696 193.772C474.591 194.894 470.61 196.43 466.816 198.356C466.147 198.698 465.376 198.781 464.649 198.592L454.213 195.939L437.999 211.047L439.945 221.616C440.06 222.283 439.962 222.969 439.665 223.576L439.517 223.827C437.325 227.491 435.522 231.374 434.137 235.413C433.893 236.105 433.413 236.69 432.781 237.063L421.682 243.652L420.93 265.762L431.558 273.132C432.164 273.547 432.602 274.163 432.796 274.872C433.901 279.011 435.437 283.022 437.38 286.84C437.485 287.058 437.569 287.285 437.63 287.518C437.742 288.003 437.742 288.507 437.63 288.992L434.977 299.31L450.086 315.524L460.61 313.594C461.345 313.459 462.105 313.595 462.747 313.977C466.432 316.166 470.329 317.979 474.377 319.386C475.108 319.603 475.726 320.095 476.102 320.757L482.676 331.989ZM496.34 304.027C495.795 304.027 495.249 304.027 494.704 304.027C482.451 303.812 470.778 298.765 462.228 289.985C453.677 281.206 448.941 269.405 449.048 257.15C449.156 244.895 454.1 233.179 462.804 224.552C471.508 215.924 483.267 211.084 495.522 211.084C507.777 211.084 519.536 215.924 528.24 224.552C536.944 233.179 541.887 244.895 541.995 257.15C542.103 269.405 537.366 281.206 528.816 289.985C520.265 298.765 508.593 303.812 496.34 304.027ZM496.34 216.929C485.632 217.113 475.431 221.52 467.956 229.19C460.482 236.86 456.341 247.172 456.433 257.881C456.525 268.59 460.844 278.829 468.449 286.369C476.055 293.909 486.331 298.14 497.04 298.14C507.75 298.14 518.025 293.909 525.631 286.369C533.236 278.829 537.555 268.59 537.647 257.881C537.74 247.172 533.598 236.86 526.124 229.19C518.649 221.52 508.448 217.113 497.74 216.929H496.34Z" fill="#EBEBEB"/>
<path d="M565.191 155.242L554.607 152.412L551.777 141.828L555.919 137.701L560.282 146.737L569.332 151.114L565.191 155.242Z" fill="#E0E0E0"/>
<path d="M565.839 148.166C566.297 147.709 566.66 147.165 566.908 146.567C567.156 145.969 567.283 145.328 567.283 144.68C567.283 144.033 567.156 143.392 566.908 142.794C566.66 142.196 566.297 141.652 565.839 141.194C565.381 140.737 564.838 140.374 564.24 140.126C563.642 139.878 563.001 139.751 562.353 139.751C561.706 139.751 561.065 139.878 560.467 140.126C559.868 140.374 559.325 140.737 558.867 141.194L564.129 133.294L571.175 136.861L572.723 144.231L565.839 148.166Z" fill="#E0E0E0"/>
<path d="M555.079 138.556L562.832 130.803L573.386 133.618L576.231 144.187L568.478 151.94L557.909 149.095L555.079 138.556ZM569.156 144.894C569.846 144.203 570.315 143.324 570.506 142.366C570.696 141.408 570.598 140.416 570.224 139.514C569.85 138.612 569.217 137.841 568.405 137.298C567.593 136.756 566.639 136.466 565.662 136.466C564.686 136.466 563.731 136.756 562.919 137.298C562.107 137.841 561.475 138.612 561.101 139.514C560.727 140.416 560.629 141.408 560.819 142.366C561.009 143.324 561.479 144.203 562.169 144.894C563.103 145.81 564.36 146.321 565.668 146.315C566.976 146.31 568.23 145.789 569.156 144.865V144.894Z" fill="#F0F0F0"/>
<path d="M132.984 437.35L138.659 435.818L140.177 430.143L137.966 427.932L135.623 432.781L130.759 435.125L132.984 437.35Z" fill="#E0E0E0"/>
<path d="M132.66 433.548C132.216 433.041 131.982 432.385 132.004 431.712C132.027 431.039 132.304 430.4 132.78 429.924C133.256 429.448 133.895 429.17 134.568 429.148C135.241 429.126 135.897 429.36 136.404 429.804L133.589 425.573L129.712 427.46L128.886 431.44L132.66 433.548Z" fill="#E0E0E0"/>
<path d="M138.409 428.374L134.252 424.217L128.577 425.691L127.103 431.366L131.186 435.567L136.861 434.093L138.409 428.374ZM130.862 431.779C130.588 431.54 130.367 431.247 130.212 430.918C130.056 430.59 129.97 430.234 129.958 429.87C129.946 429.507 130.008 429.146 130.142 428.808C130.275 428.47 130.477 428.163 130.733 427.907C130.99 427.65 131.297 427.448 131.635 427.315C131.973 427.181 132.334 427.119 132.697 427.131C133.06 427.143 133.417 427.229 133.745 427.385C134.074 427.54 134.366 427.762 134.606 428.035C135.049 428.541 135.284 429.198 135.261 429.87C135.239 430.543 134.962 431.183 134.486 431.659C134.01 432.135 133.37 432.412 132.697 432.434C132.024 432.457 131.368 432.222 130.862 431.779Z" fill="#F0F0F0"/>
<path d="M112.555 126.263L117.271 130.98C117.861 131.559 118.655 131.884 119.482 131.884C120.309 131.884 121.103 131.559 121.693 130.98C122.27 130.388 122.592 129.595 122.592 128.769C122.592 127.943 122.27 127.149 121.693 126.558L116.991 121.855C116.4 121.279 115.606 120.957 114.78 120.957C113.954 120.957 113.161 121.279 112.569 121.855C111.992 122.443 111.667 123.233 111.665 124.056C111.662 124.88 111.981 125.672 112.555 126.263Z" fill="#F0F0F0"/>
<path d="M109.238 114.544C110.469 114.202 111.773 114.227 112.99 114.615C114.207 115.004 115.284 115.739 116.089 116.731C116.894 117.723 117.392 118.929 117.521 120.2C117.65 121.471 117.406 122.752 116.817 123.886C116.229 125.02 115.322 125.957 114.208 126.583C113.094 127.208 111.822 127.495 110.547 127.408C109.273 127.321 108.052 126.863 107.033 126.092C106.015 125.32 105.245 124.268 104.816 123.064C104.544 122.215 104.443 121.319 104.518 120.43C104.593 119.541 104.844 118.676 105.255 117.884C105.666 117.092 106.229 116.39 106.913 115.817C107.596 115.243 108.387 114.811 109.238 114.544Z" fill="#E0E0E0"/>
<path d="M104.108 122.275L104.791 124.176L118.802 119.142L118.119 117.242L104.108 122.275Z" fill="#F0F0F0"/>
<path d="M368.5 630.223C526.34 630.223 654.294 622.753 654.294 613.538C654.294 604.322 526.34 596.852 368.5 596.852C210.66 596.852 82.7061 604.322 82.7061 613.538C82.7061 622.753 210.66 630.223 368.5 630.223Z" fill="#F5F5F5"/>
<path d="M127.825 177.838C126.351 171.338 127 165.884 129.8 161.432C132.601 156.981 137.17 154.062 143.671 152.588C150.171 151.114 155.787 151.704 160.18 154.446C164.572 157.187 167.55 161.816 169.024 168.154C170.064 172.066 170.15 176.171 169.274 180.123C168.417 183.405 166.607 186.359 164.071 188.613C161.059 191.149 157.445 192.864 153.576 193.595C149.784 194.602 145.813 194.738 141.961 193.993C138.612 193.179 135.584 191.383 133.264 188.834C130.493 185.726 128.614 181.927 127.825 177.838ZM140.118 175.096C141.032 179.106 142.433 181.818 144.319 183.233C145.293 183.882 146.389 184.328 147.539 184.543C148.69 184.759 149.872 184.739 151.015 184.486C152.158 184.232 153.237 183.75 154.189 183.069C155.141 182.388 155.945 181.521 156.554 180.521C157.615 178.472 157.63 175.214 156.627 170.778C155.772 167.034 154.392 164.469 152.485 163.083C151.526 162.394 150.423 161.93 149.26 161.723C148.097 161.516 146.902 161.573 145.764 161.889C144.625 162.103 143.548 162.572 142.617 163.261C141.685 163.95 140.921 164.842 140.384 165.869C139.293 168.036 139.19 170.984 140.118 175.096Z" fill="#263238"/>
<path d="M174.802 172.974C174.278 170.965 174.185 168.868 174.528 166.821C174.871 164.774 175.642 162.822 176.792 161.093C178.08 159.257 179.719 157.693 181.614 156.492C183.508 155.29 185.621 154.475 187.832 154.092C193.6 152.785 198.337 153.468 202.041 156.141C205.159 158.558 207.279 162.037 207.996 165.916C208.714 169.795 207.979 173.802 205.933 177.175C203.633 180.683 199.889 183.022 194.701 184.191C190.703 185.309 186.439 184.964 182.673 183.218C180.659 182.234 178.901 180.797 177.535 179.02C176.17 177.242 175.234 175.173 174.802 172.974ZM185.872 170.424C186.17 172.484 187.176 174.375 188.716 175.774C189.327 176.237 190.031 176.56 190.78 176.723C191.528 176.886 192.303 176.884 193.051 176.717C193.798 176.55 194.501 176.222 195.109 175.757C195.717 175.291 196.217 174.699 196.573 174.02C197.345 172.04 197.417 169.856 196.779 167.83C196.469 165.818 195.475 163.975 193.964 162.612C193.377 162.136 192.689 161.803 191.953 161.636C191.217 161.47 190.452 161.476 189.719 161.654C188.954 161.812 188.235 162.143 187.617 162.62C186.999 163.098 186.498 163.71 186.152 164.41C185.358 166.32 185.259 168.448 185.872 170.424Z" fill="#263238"/>
<path d="M219.007 189.512L209.971 149.714L220.289 147.356L221.262 151.616C221.99 149.917 223.047 148.379 224.372 147.09C225.827 145.856 227.563 145 229.428 144.599C231.151 144.131 232.965 144.104 234.701 144.521C236.438 144.938 238.041 145.787 239.363 146.987C242.276 149.711 244.253 153.286 245.008 157.202C246.099 161.993 245.775 165.913 244.065 168.994C243.252 170.467 242.128 171.745 240.771 172.741C239.415 173.736 237.858 174.424 236.209 174.757C234.62 175.134 232.973 175.199 231.359 174.949C229.812 174.678 228.336 174.091 227.026 173.224L230.15 186.977L219.007 189.512ZM224.328 161.712C224.599 163.553 225.519 165.237 226.922 166.459C227.485 166.89 228.138 167.188 228.833 167.331C229.527 167.474 230.244 167.458 230.932 167.284C231.57 167.156 232.169 166.88 232.681 166.478C233.193 166.076 233.604 165.56 233.88 164.97C234.506 163.125 234.506 161.125 233.88 159.28C233.61 157.43 232.722 155.726 231.359 154.446C230.854 154.026 230.259 153.728 229.62 153.574C228.981 153.421 228.315 153.417 227.674 153.561C226.997 153.707 226.361 154.005 225.815 154.431C225.269 154.857 224.826 155.401 224.52 156.023C223.798 157.84 223.73 159.851 224.328 161.712Z" fill="#263238"/>
<path d="M249.74 162.582L260.471 159.059C261.041 160.097 261.93 160.923 263.006 161.418C264.164 161.753 265.389 161.78 266.56 161.495C267.731 161.211 268.808 160.625 269.683 159.796C269.928 159.536 270.105 159.22 270.2 158.876C270.295 158.532 270.305 158.17 270.228 157.821C270.14 157.422 269.934 157.059 269.637 156.778C269.34 156.497 268.966 156.311 268.563 156.244C266.897 156.061 265.217 156.061 263.551 156.244C260.756 156.482 257.945 156.482 255.149 156.244C253.513 156.006 251.979 155.306 250.727 154.225C249.393 153.069 248.471 151.511 248.101 149.785C247.731 148.058 247.934 146.259 248.679 144.658C249.538 142.946 250.874 141.518 252.526 140.546C254.877 139.21 257.431 138.269 260.087 137.76C262.622 137.072 265.244 136.754 267.87 136.817C269.519 136.923 271.118 137.429 272.528 138.291C274.03 139.304 275.305 140.619 276.272 142.153L265.954 145.557C265.568 144.79 264.927 144.18 264.141 143.833C263.066 143.448 261.9 143.397 260.795 143.686C259.819 143.822 258.913 144.272 258.215 144.968C257.994 145.205 257.833 145.493 257.749 145.807C257.664 146.12 257.657 146.449 257.729 146.766C257.809 147.115 257.992 147.431 258.255 147.673C258.519 147.915 258.849 148.072 259.203 148.122C260.851 148.313 262.517 148.279 264.156 148.019C266.998 147.607 269.882 147.568 272.734 147.901C274.529 148.155 276.21 148.928 277.569 150.127C278.798 151.241 279.653 152.709 280.016 154.328C280.393 156.064 280.255 157.873 279.618 159.531C278.838 161.494 277.482 163.175 275.726 164.351C273.141 166.041 270.245 167.199 267.207 167.756C261.949 168.955 258.019 169.058 255.415 168.065C252.877 167.052 250.84 165.083 249.74 162.582Z" fill="#263238"/>
<path d="M285.735 126.13H297.836V135.416L295.611 154.092H288.123L285.735 135.446V126.13ZM286.324 156.907H297.615V166.901H286.324V156.907Z" fill="#263238"/>
<path d="M189.674 252.909H189.409C182.776 250.329 178.811 247.824 176.747 244.802C175.132 245.108 173.461 244.88 171.986 244.153C170.259 243.308 168.826 241.962 167.874 240.291C167.373 240.676 166.784 240.927 166.16 241.022C165.537 241.118 164.899 241.054 164.307 240.837C162.49 240.157 160.94 238.912 159.885 237.285C159.225 237.776 158.404 238.002 157.585 237.918C153.163 237.565 147.267 228.838 146.84 219.552C146.835 219.356 146.906 219.166 147.038 219.021C147.17 218.875 147.352 218.786 147.547 218.771C147.644 218.767 147.741 218.782 147.832 218.816C147.923 218.849 148.006 218.9 148.077 218.966C148.148 219.032 148.206 219.111 148.247 219.199C148.287 219.287 148.31 219.382 148.314 219.479C148.727 228.323 154.372 236.179 157.718 236.444C157.961 236.472 158.208 236.451 158.443 236.382C158.678 236.314 158.898 236.2 159.089 236.046C157.936 233.945 157.212 231.635 156.959 229.252C156.706 226.868 156.929 224.458 157.615 222.161C158.882 217.739 160.003 216 161.359 216.265C163.894 216.899 163.555 226.583 162.214 232.907C162.01 234.047 161.59 235.138 160.975 236.12C161.844 237.577 163.156 238.718 164.719 239.378C165.136 239.536 165.589 239.572 166.026 239.481C166.462 239.389 166.863 239.174 167.181 238.862C166.031 236.017 165.707 232.126 167.358 227.173C169.421 220.643 170.306 220.466 170.763 220.348C170.935 220.312 171.113 220.323 171.279 220.38C171.445 220.437 171.593 220.538 171.706 220.673C173.077 222.22 171.441 232.361 169.731 237.373C169.531 237.976 169.253 238.551 168.906 239.083C169.696 240.677 170.985 241.971 172.576 242.768C173.619 243.275 174.78 243.494 175.937 243.402C175.804 243.122 175.686 242.842 175.568 242.547C174.404 239.378 174.978 235.737 177.322 231.374C178.87 228.499 180.137 227.143 181.317 227.143C181.63 227.148 181.935 227.241 182.196 227.414C182.457 227.586 182.664 227.83 182.791 228.116C184.073 230.489 183.144 238.316 180.609 242.208C180.015 243.1 179.19 243.813 178.221 244.271C180.196 246.866 183.955 249.15 190.013 251.479C190.104 251.512 190.187 251.562 190.258 251.628C190.329 251.694 190.386 251.773 190.426 251.861C190.466 251.948 190.488 252.044 190.49 252.14C190.493 252.237 190.476 252.333 190.441 252.422C190.383 252.576 190.278 252.707 190.139 252.794C190.001 252.882 189.838 252.922 189.674 252.909ZM181.302 228.632C181.302 228.632 180.462 228.632 178.604 232.096C176.467 236.046 175.922 239.304 176.939 242.046C177.062 242.385 177.21 242.715 177.381 243.033C178.179 242.703 178.858 242.138 179.327 241.412C181.39 238.257 182.378 231.772 181.611 229.236C181.508 228.721 181.302 228.632 181.302 228.632ZM170.719 222.427C169.921 224.105 169.26 225.845 168.743 227.63C167.613 230.723 167.418 234.081 168.183 237.285L168.316 236.901C169.864 232.229 170.689 227.348 170.763 222.427H170.719ZM161.02 217.783C160.769 218.005 160.047 218.933 159.03 222.53C157.827 226.566 158.206 230.909 160.091 234.676C160.393 234.017 160.616 233.324 160.754 232.612C162.332 225.375 161.889 218.83 161.064 217.783H161.02Z" fill="#263238"/>
<path d="M245.716 330.176C243.359 330.199 241.039 329.593 238.994 328.422C238.826 328.321 238.704 328.158 238.654 327.967C238.605 327.777 238.631 327.575 238.729 327.405C238.777 327.322 238.842 327.249 238.919 327.191C238.996 327.134 239.084 327.092 239.177 327.069C239.271 327.045 239.368 327.041 239.463 327.055C239.558 327.07 239.649 327.104 239.731 327.154C244.993 330.235 251.789 328.083 253.189 325.828C253.29 325.686 253.362 325.526 253.4 325.356C253.438 325.187 253.441 325.011 253.41 324.84C250.719 324.995 248.055 324.236 245.848 322.688C242.09 320.344 241.795 319.637 241.824 319.077C241.831 318.916 241.882 318.76 241.97 318.625C242.058 318.49 242.181 318.381 242.325 318.31C243.799 317.573 250.447 320.624 253.218 322.452C253.551 322.673 253.857 322.93 254.132 323.219C255.221 322.972 256.202 322.383 256.933 321.538C257.344 321.055 257.641 320.486 257.802 319.873H257.508C255.149 320.109 252.791 319.091 250.27 316.763C248.531 315.171 247.868 314.065 248.089 313.195C248.156 312.951 248.291 312.731 248.479 312.561C248.667 312.391 248.9 312.279 249.15 312.237C251.184 311.721 256.225 313.874 258.274 316.129C258.731 316.619 259.056 317.218 259.217 317.868C261.148 316.969 263.183 314.92 265.585 311.574C265.641 311.494 265.712 311.427 265.794 311.374C265.877 311.322 265.968 311.287 266.064 311.271C266.16 311.254 266.258 311.257 266.353 311.279C266.448 311.3 266.538 311.341 266.617 311.397C266.775 311.512 266.881 311.685 266.914 311.877C266.948 312.07 266.904 312.268 266.794 312.429C264.008 316.32 261.679 318.531 259.35 319.431C259.229 320.52 258.782 321.547 258.068 322.379C257.218 323.365 256.103 324.087 254.854 324.457C254.925 324.809 254.924 325.171 254.853 325.523C254.783 325.874 254.643 326.208 254.442 326.506C253.204 328.614 249.636 330.176 245.716 330.176ZM244.404 319.946C244.905 320.315 245.612 320.801 246.63 321.42C248.214 322.49 250.036 323.157 251.936 323.366C249.563 321.943 247.036 320.796 244.404 319.946ZM249.548 313.682C249.972 314.479 250.559 315.177 251.273 315.731C253.454 317.75 255.444 318.679 257.36 318.443H257.832C257.727 317.985 257.503 317.563 257.183 317.22C255.12 314.891 250.58 313.446 249.548 313.682Z" fill="#263238"/>
<path d="M265.231 328.157L242.267 332.328L221.409 218.506L177.101 226.554L104.875 354.792L112.628 397.11L205.269 380.292L211.607 414.902L255.916 406.824L249.578 372.214L272.542 368.043L265.231 328.157ZM149.007 349.338L187.331 282.168L198.017 340.45L149.007 349.338Z" fill="#27AAE1"/>
<path d="M450.204 210.782C449.506 203.627 447.922 196.586 445.487 189.822C442.982 183.342 439.502 177.283 435.169 171.854C430.039 165.537 423.667 160.34 416.449 156.583C408.588 152.269 398.162 149.267 385.171 147.577C358.197 144.059 337.177 148.844 322.113 161.934C307.049 175.023 297.124 200.081 292.338 237.108C290.427 250.946 289.934 264.942 290.864 278.881C291.847 291.655 294.195 301.939 297.91 309.732C302.637 320.24 310.093 329.29 319.504 335.939C328.81 342.474 341.585 346.793 357.828 348.896C386.699 352.659 408.106 347.112 422.05 332.254C435.994 317.396 445.231 292.289 449.761 256.933C451.775 241.624 451.924 226.127 450.204 210.782Z" fill="#27AAE1"/>
<path d="M371.109 333.758C367.556 333.64 363.739 333.316 359.892 332.814C346.39 331.06 335.954 327.641 328.849 322.659C321.764 317.656 316.162 310.831 312.635 302.907L312.562 302.745C309.731 296.849 307.874 288.373 307.064 277.687C306.205 264.85 306.659 251.96 308.42 239.215C313.682 198.356 324.545 181.302 332.726 174.197C342.277 165.913 355.175 162.169 372.126 162.759C375.605 162.877 379.29 163.187 383.078 163.673C393.956 165.147 402.579 167.505 408.681 170.837C413.954 173.552 418.622 177.308 422.404 181.877C425.713 186.004 428.372 190.611 430.29 195.541C432.248 201.038 433.516 206.756 434.063 212.566C435.635 226.642 435.492 240.857 433.636 254.899C429.553 286.649 421.652 308.965 410.17 321.229C401.65 330.309 388.871 334.495 371.094 333.817L371.109 333.758Z" fill="#263238"/>
<path d="M399.955 211.209L400.147 205.623L396.712 204.503C396.566 202.613 396.26 200.739 395.798 198.901L398.746 196.749L396.771 191.502L393.175 191.797C392.329 190.11 391.343 188.498 390.227 186.977L392.084 183.867L388.251 179.784L385.038 181.435C383.6 180.198 382.062 179.084 380.439 178.103L380.955 174.536L375.855 172.222L373.526 174.964C371.723 174.379 369.874 173.945 367.999 173.667L367.129 170.173L361.528 169.982L360.422 173.401C358.533 173.552 356.66 173.858 354.821 174.315L352.654 171.367L347.407 173.328L347.702 176.924C346.016 177.771 344.403 178.757 342.882 179.872L339.786 178L335.689 181.818L337.339 185.046C336.1 186.483 334.99 188.027 334.023 189.659L330.456 189.114L328.127 194.214L330.883 196.543C330.285 198.348 329.851 200.203 329.586 202.085L326.078 202.97L325.886 208.541L329.321 209.662C329.465 211.556 329.771 213.435 330.235 215.278L327.287 217.415L329.262 222.662L332.859 222.368C333.696 224.059 334.682 225.672 335.807 227.188L333.935 230.298L337.767 234.381L340.98 232.744C342.418 233.976 343.957 235.085 345.579 236.061L345.048 239.628L350.149 241.942L352.492 239.215C354.301 239.797 356.154 240.225 358.034 240.498L358.904 244.006L364.491 244.197L365.596 240.763C367.491 240.619 369.369 240.313 371.212 239.849L373.349 242.797L378.597 240.837L378.317 237.255C379.997 236.398 381.608 235.412 383.137 234.307L386.232 236.164L390.33 232.347L388.694 229.118C389.928 227.686 391.033 226.147 391.995 224.52L395.562 225.05L397.891 219.95L395.15 217.621C395.736 215.819 396.165 213.97 396.432 212.094L399.955 211.209ZM362.221 229.295C357.855 229.136 353.634 227.687 350.091 225.13C346.548 222.574 343.842 219.026 342.314 214.933C340.786 210.84 340.505 206.387 341.506 202.134C342.507 197.882 344.745 194.021 347.938 191.04C351.132 188.058 355.136 186.089 359.447 185.382C363.759 184.674 368.183 185.26 372.161 187.065C376.14 188.869 379.494 191.812 381.802 195.522C384.109 199.231 385.266 203.541 385.127 207.908C385.033 210.818 384.366 213.681 383.163 216.333C381.96 218.985 380.246 221.373 378.117 223.361C375.989 225.348 373.489 226.895 370.761 227.914C368.033 228.932 365.131 229.402 362.221 229.295Z" fill="#27AAE1"/>
<path opacity="0.3" d="M423.215 313.77L423.628 309.997L421.358 309.083C421.354 307.799 421.246 306.517 421.033 305.251L423.082 303.939L422.036 300.298H419.589C419.105 299.114 418.518 297.974 417.835 296.893L419.22 294.888L416.862 291.94L414.607 292.884C413.693 291.98 412.707 291.152 411.659 290.407L412.204 288.02L408.888 286.192L407.148 287.946C405.964 287.458 404.741 287.069 403.493 286.781L403.08 284.379L399.321 283.951L398.393 286.221C397.112 286.227 395.835 286.346 394.575 286.575L393.263 284.482L389.622 285.558V288.005C388.438 288.494 387.299 289.086 386.217 289.774L384.213 288.3L381.265 290.658L382.208 292.913C381.309 293.828 380.486 294.814 379.747 295.861L377.359 295.331L375.546 298.647L377.285 300.372C376.791 301.559 376.401 302.787 376.121 304.042L373.703 304.44L373.305 308.199L375.56 309.142C375.562 310.417 375.675 311.69 375.899 312.945L373.821 314.257L374.882 317.898H377.344C377.836 319.076 378.428 320.21 379.113 321.288L377.639 323.292L379.997 326.24L382.282 325.282C383.189 326.189 384.176 327.013 385.23 327.744L384.714 330.176L388.03 331.989L389.755 330.264C390.941 330.74 392.163 331.12 393.411 331.399L393.838 333.817L397.597 334.229L398.511 331.974C399.814 331.972 401.116 331.864 402.402 331.65L403.714 333.728L407.34 332.667V330.22C408.525 329.722 409.668 329.131 410.76 328.451L412.735 329.925L415.683 327.552L414.725 325.297C415.633 324.383 416.466 323.397 417.216 322.349L419.589 322.88L421.417 319.563L419.677 317.853C420.151 316.667 420.531 315.444 420.812 314.198L423.215 313.77ZM404.244 312.296C403.621 313.438 402.673 314.368 401.52 314.97C400.367 315.573 399.062 315.819 397.769 315.679C396.476 315.54 395.253 315.019 394.256 314.184C393.259 313.35 392.531 312.238 392.166 310.989C391.801 309.741 391.814 308.413 392.204 307.172C392.594 305.931 393.344 304.834 394.357 304.019C395.371 303.205 396.604 302.709 397.899 302.595C399.195 302.481 400.495 302.754 401.635 303.379C403.16 304.219 404.291 305.628 404.779 307.299C405.268 308.97 405.076 310.767 404.244 312.296Z" fill="#27AAE1"/>
<path d="M444.101 250.064L439.679 247.028C439.244 245.449 438.652 243.918 437.911 242.458L439.031 238.036L432.663 231.212L428.241 232.037C426.838 231.202 425.357 230.506 423.819 229.959L421.092 225.36L411.762 225.05L408.725 229.472C407.145 229.901 405.613 230.494 404.156 231.241L399.734 230.106L392.909 236.489L393.735 240.911C392.888 242.307 392.191 243.789 391.656 245.333L387.072 248.059L386.748 257.39L391.17 260.426C391.599 262.016 392.191 263.558 392.939 265.025L391.819 269.447L398.186 276.272L402.608 275.461C404.012 276.295 405.493 276.991 407.03 277.539L409.742 282.124L419.088 282.448L422.109 278.026C423.703 277.593 425.249 277.001 426.723 276.257L431.145 277.377L437.97 271.01L437.159 266.588C437.997 265.186 438.693 263.705 439.237 262.166L443.821 259.439L444.101 250.064ZM415.019 264.244C412.945 264.173 410.938 263.488 409.253 262.276C407.567 261.064 406.279 259.38 405.551 257.436C404.823 255.492 404.688 253.376 405.163 251.355C405.637 249.334 406.701 247.5 408.218 246.083C409.736 244.667 411.639 243.732 413.688 243.398C415.736 243.063 417.838 243.343 419.727 244.203C421.617 245.063 423.208 246.464 424.301 248.229C425.395 249.994 425.94 252.043 425.868 254.118C425.768 256.898 424.57 259.525 422.536 261.423C420.503 263.321 417.8 264.336 415.019 264.244Z" fill="white"/>
<path d="M476.102 175.583L476.868 173.74C477.39 173.447 477.883 173.106 478.342 172.723H480.052L482.057 169.775L481.408 168.198C481.657 167.673 481.854 167.125 481.998 166.562L483.472 165.206L482.853 161.742L480.996 160.975C480.705 160.453 480.364 159.959 479.979 159.501V157.792L477.104 155.787L475.512 156.45C474.93 156.245 474.327 156.107 473.714 156.038L472.358 154.564L468.909 155.183L468.128 157.04C467.581 157.323 467.062 157.659 466.58 158.042H464.885L462.88 160.99L463.529 162.567C463.331 163.151 463.192 163.754 463.116 164.366L461.642 165.737L462.261 169.186L464.118 169.952C464.4 170.477 464.736 170.972 465.121 171.426V173.121L468.069 175.126L469.646 174.477C470.236 174.669 470.843 174.802 471.459 174.875L472.815 176.349L476.102 175.583ZM468.732 166.031C468.593 165.262 468.685 164.469 468.996 163.752C469.308 163.035 469.825 162.427 470.482 162.004C471.14 161.582 471.908 161.363 472.689 161.377C473.471 161.391 474.23 161.636 474.872 162.082C475.514 162.528 476.01 163.154 476.296 163.882C476.581 164.609 476.645 165.405 476.479 166.169C476.312 166.933 475.923 167.63 475.36 168.172C474.797 168.714 474.085 169.077 473.316 169.215C472.287 169.396 471.228 169.163 470.369 168.566C469.511 167.97 468.922 167.059 468.732 166.031Z" fill="#27AAE1"/>
<path d="M435.729 165.81L434.594 164.852C437.026 161.835 440.032 159.33 443.438 157.482L444.131 158.779C440.892 160.543 438.036 162.933 435.729 165.81Z" fill="#27AAE1"/>
<path d="M447.492 157.423L446.917 156.067C452.36 153.702 458.312 152.749 464.221 153.296L464.074 154.77C458.411 154.236 452.705 155.149 447.492 157.423Z" fill="#27AAE1"/>
<path d="M444.706 167.623L443.497 166.798C447.048 162.002 452.217 158.656 458.045 157.379L458.326 158.853C452.878 160.042 448.043 163.156 444.706 167.623Z" fill="#27AAE1"/>
<path d="M346.891 309.54C346.69 309.534 346.5 309.449 346.36 309.304L343.28 306.12C341.709 305.978 340.155 305.692 338.637 305.265L333.817 307.388C333.71 307.446 333.591 307.476 333.47 307.476C333.349 307.476 333.23 307.446 333.124 307.388L325.046 302.037C324.942 301.969 324.858 301.874 324.801 301.763C324.744 301.652 324.717 301.528 324.722 301.404V296.156C323.736 294.923 322.868 293.6 322.128 292.206L317.986 290.614C317.87 290.569 317.767 290.495 317.687 290.4C317.607 290.305 317.553 290.191 317.529 290.068L315.613 280.576C315.587 280.455 315.593 280.329 315.629 280.21C315.665 280.092 315.731 279.984 315.819 279.898L319.003 276.817C319.155 275.248 319.441 273.695 319.858 272.174L317.735 267.354C317.677 267.248 317.647 267.129 317.647 267.008C317.647 266.887 317.677 266.768 317.735 266.661L323.086 258.584C323.152 258.477 323.246 258.391 323.358 258.334C323.47 258.277 323.595 258.251 323.72 258.26L328.967 258.333C330.197 257.342 331.52 256.474 332.918 255.739L334.524 251.597C334.567 251.482 334.638 251.38 334.73 251.3C334.823 251.22 334.935 251.165 335.055 251.14L344.547 249.224C344.669 249.197 344.795 249.202 344.913 249.238C345.032 249.274 345.14 249.341 345.225 249.43L348.306 252.614C349.881 252.758 351.44 253.044 352.964 253.469L357.769 251.346C357.878 251.288 358 251.258 358.123 251.258C358.246 251.258 358.368 251.288 358.477 251.346L366.539 256.697C366.642 256.769 366.726 256.863 366.785 256.974C366.844 257.084 366.876 257.206 366.878 257.331L366.79 262.578C367.781 263.811 368.654 265.134 369.399 266.529L373.526 268.135C373.641 268.178 373.743 268.249 373.823 268.342C373.903 268.434 373.958 268.546 373.983 268.666L375.914 278.159C375.937 278.28 375.93 278.405 375.894 278.523C375.858 278.641 375.794 278.749 375.708 278.837L372.509 281.932C372.362 283.497 372.076 285.046 371.654 286.56L373.777 291.38C373.835 291.489 373.865 291.611 373.865 291.734C373.865 291.857 373.835 291.979 373.777 292.088L368.5 300.092C368.431 300.192 368.338 300.274 368.23 300.33C368.123 300.387 368.003 300.416 367.881 300.416L362.619 300.342C361.385 301.32 360.068 302.188 358.683 302.936L357.076 307.078C357.033 307.195 356.959 307.299 356.864 307.379C356.768 307.459 356.654 307.513 356.531 307.535L347.038 309.54H346.891ZM338.592 303.644C338.661 303.63 338.731 303.63 338.799 303.644C340.391 304.108 342.025 304.409 343.678 304.543C343.855 304.564 344.02 304.642 344.149 304.764L347.097 307.86L355.794 306.106L357.356 302.067C357.429 301.904 357.553 301.769 357.71 301.684C359.183 300.922 360.571 300.008 361.852 298.957C361.988 298.842 362.162 298.784 362.339 298.795L367.453 298.868L372.347 291.498L370.283 286.811C370.225 286.649 370.225 286.472 370.283 286.31C370.739 284.716 371.04 283.082 371.183 281.431C371.198 281.252 371.276 281.085 371.404 280.959L374.499 278.011L372.745 269.315L368.721 267.752C368.548 267.689 368.406 267.563 368.323 267.398C367.558 265.928 366.644 264.54 365.596 263.256C365.491 263.122 365.434 262.956 365.434 262.785V257.655L358.064 252.762L353.391 254.825C353.225 254.885 353.042 254.885 352.875 254.825C351.278 254.364 349.639 254.063 347.982 253.926C347.805 253.905 347.639 253.828 347.51 253.705L344.562 250.609L335.866 252.378L334.318 256.476C334.256 256.645 334.136 256.786 333.979 256.874C332.501 257.633 331.107 258.547 329.822 259.601C329.759 259.658 329.684 259.702 329.603 259.73C329.522 259.758 329.436 259.769 329.35 259.763L324.236 259.689L319.327 267.059L321.391 271.747C321.438 271.846 321.462 271.954 321.462 272.064C321.462 272.173 321.438 272.281 321.391 272.38C320.954 273.936 320.668 275.531 320.536 277.141C320.522 277.32 320.443 277.488 320.315 277.613L317.219 280.561L318.988 289.258L322.998 290.82C323.176 290.895 323.323 291.03 323.41 291.203C324.17 292.664 325.079 294.042 326.122 295.316C326.232 295.448 326.29 295.616 326.285 295.788V300.917L333.655 305.811L338.342 303.747C338.419 303.698 338.503 303.663 338.592 303.644ZM345.83 298.868C342.282 298.865 338.801 297.901 335.758 296.077C332.714 294.254 330.221 291.64 328.545 288.513C326.868 285.387 326.07 281.864 326.235 278.32C326.4 274.776 327.523 271.343 329.483 268.386C331.358 265.549 333.937 263.247 336.969 261.706C340 260.164 343.379 259.436 346.776 259.592C350.173 259.748 353.472 260.783 356.349 262.596C359.226 264.409 361.583 266.937 363.19 269.934C364.798 272.931 365.599 276.294 365.517 279.693C365.436 283.093 364.473 286.413 362.723 289.329C360.973 292.245 358.497 294.657 355.536 296.329C352.575 298.001 349.23 298.876 345.83 298.868ZM330.721 269.197C328.737 272.19 327.685 275.705 327.699 279.296C327.712 282.887 328.79 286.394 330.796 289.373C332.802 292.352 335.646 294.669 338.969 296.031C342.292 297.394 345.944 297.74 349.464 297.027C352.983 296.314 356.213 294.573 358.743 292.025C361.274 289.477 362.992 286.236 363.681 282.711C364.369 279.186 363.998 275.537 362.612 272.223C361.227 268.91 358.89 266.082 355.897 264.097C353.913 262.768 351.684 261.846 349.341 261.383C346.999 260.921 344.587 260.927 342.247 261.401C339.906 261.875 337.682 262.808 335.704 264.146C333.726 265.484 332.032 267.201 330.721 269.197Z" fill="white"/>
<path d="M627.673 341.452L604.532 338.327L619.832 223.635L575.199 217.621L466.934 317.293L461.244 359.936L554.534 372.524L549.876 407.414L594.508 413.428L599.166 378.553L622.308 381.678L627.673 341.452ZM510.608 325.651L567.741 273.574L559.899 332.299L510.608 325.651Z" fill="#27AAE1"/>
<path d="M580.948 412.337H580.756C580.565 412.301 580.396 412.191 580.285 412.031C580.175 411.871 580.132 411.673 580.166 411.482L614.658 222.898C614.697 222.709 614.808 222.542 614.967 222.432C615.127 222.322 615.322 222.278 615.513 222.309C615.704 222.344 615.873 222.454 615.984 222.615C616.094 222.775 616.137 222.972 616.103 223.164L581.685 411.732C581.651 411.903 581.559 412.056 581.424 412.166C581.29 412.276 581.121 412.337 580.948 412.337Z" fill="#263238"/>
<path d="M611.459 226.067C611.448 226.388 611.309 226.691 611.074 226.909C610.839 227.127 610.527 227.243 610.207 227.232C609.886 227.22 609.583 227.081 609.365 226.846C609.146 226.612 609.03 226.299 609.042 225.979C609.054 225.658 609.192 225.356 609.427 225.137C609.662 224.919 609.974 224.803 610.295 224.814C610.616 224.826 610.918 224.965 611.137 225.2C611.355 225.435 611.471 225.747 611.459 226.067Z" fill="#263238"/>
<path d="M606.551 251.568C606.542 251.806 606.462 252.037 606.322 252.231C606.182 252.424 605.988 252.572 605.764 252.655C605.54 252.739 605.296 252.754 605.064 252.699C604.831 252.643 604.62 252.52 604.458 252.345C604.295 252.17 604.188 251.951 604.15 251.715C604.112 251.479 604.144 251.237 604.244 251.02C604.343 250.802 604.505 250.619 604.708 250.494C604.911 250.368 605.148 250.306 605.386 250.315C605.545 250.32 605.701 250.357 605.846 250.423C605.99 250.489 606.12 250.583 606.228 250.7C606.336 250.816 606.421 250.953 606.476 251.101C606.531 251.25 606.557 251.409 606.551 251.568Z" fill="#263238"/>
<path d="M601.643 277.112C601.637 277.271 601.6 277.427 601.534 277.571C601.468 277.716 601.374 277.846 601.258 277.954C601.141 278.062 601.005 278.146 600.856 278.201C600.707 278.257 600.548 278.282 600.39 278.276C600.232 278.273 600.076 278.237 599.931 278.173C599.787 278.108 599.657 278.016 599.549 277.901C599.44 277.786 599.356 277.65 599.3 277.502C599.245 277.354 599.219 277.196 599.225 277.038C599.229 276.878 599.265 276.72 599.33 276.574C599.395 276.428 599.489 276.296 599.605 276.187C599.722 276.077 599.859 275.992 600.009 275.935C600.159 275.879 600.318 275.853 600.478 275.859C600.797 275.874 601.098 276.014 601.316 276.248C601.533 276.482 601.651 276.792 601.643 277.112Z" fill="#263238"/>
<path d="M591.973 303.644C591.94 303.94 591.799 304.213 591.578 304.411C591.356 304.61 591.069 304.719 590.772 304.719C590.474 304.719 590.187 304.61 589.965 304.411C589.744 304.213 589.603 303.94 589.57 303.644C589.552 303.475 589.569 303.304 589.621 303.142C589.672 302.98 589.758 302.831 589.871 302.705C589.984 302.578 590.123 302.477 590.278 302.407C590.434 302.338 590.602 302.302 590.772 302.302C590.942 302.302 591.11 302.338 591.265 302.407C591.42 302.477 591.559 302.578 591.672 302.705C591.786 302.831 591.871 302.98 591.923 303.142C591.975 303.304 591.992 303.475 591.973 303.644Z" fill="#263238"/>
<path d="M591.811 328.068C591.807 328.227 591.772 328.384 591.706 328.53C591.641 328.675 591.547 328.806 591.43 328.915C591.313 329.023 591.176 329.107 591.026 329.162C590.876 329.216 590.717 329.24 590.558 329.233C590.319 329.224 590.088 329.144 589.895 329.004C589.701 328.864 589.553 328.67 589.47 328.446C589.387 328.222 589.372 327.978 589.427 327.746C589.482 327.513 589.605 327.302 589.78 327.139C589.955 326.977 590.175 326.87 590.41 326.831C590.646 326.793 590.888 326.826 591.106 326.926C591.323 327.025 591.506 327.187 591.632 327.39C591.757 327.593 591.819 327.829 591.811 328.068Z" fill="#263238"/>
<path d="M586.903 353.568C586.897 353.808 586.82 354.04 586.681 354.236C586.543 354.432 586.349 354.582 586.126 354.667C585.902 354.753 585.657 354.77 585.424 354.716C585.19 354.662 584.978 354.541 584.814 354.366C584.65 354.192 584.541 353.972 584.502 353.736C584.463 353.499 584.495 353.257 584.594 353.038C584.693 352.82 584.854 352.636 585.058 352.51C585.262 352.384 585.499 352.321 585.738 352.33C586.056 352.342 586.357 352.478 586.575 352.71C586.793 352.942 586.911 353.25 586.903 353.568Z" fill="#263238"/>
<path d="M581.994 379.068C581.983 379.39 581.845 379.695 581.61 379.916C581.375 380.136 581.063 380.256 580.741 380.248C580.582 380.242 580.426 380.205 580.282 380.139C580.137 380.073 580.007 379.979 579.899 379.863C579.791 379.746 579.707 379.61 579.652 379.461C579.596 379.312 579.571 379.154 579.577 378.995C579.582 378.836 579.618 378.68 579.683 378.535C579.748 378.39 579.841 378.26 579.957 378.151C580.072 378.042 580.208 377.957 580.357 377.901C580.505 377.845 580.664 377.818 580.822 377.823C580.981 377.828 581.137 377.864 581.282 377.929C581.427 377.994 581.557 378.087 581.666 378.203C581.775 378.319 581.86 378.455 581.916 378.603C581.972 378.752 581.999 378.91 581.994 379.068Z" fill="#263238"/>
<path d="M577.071 404.584C577.062 404.822 576.982 405.053 576.842 405.247C576.702 405.44 576.508 405.588 576.284 405.671C576.06 405.755 575.816 405.77 575.584 405.714C575.351 405.659 575.14 405.536 574.978 405.361C574.815 405.186 574.708 404.967 574.67 404.731C574.632 404.495 574.664 404.253 574.764 404.036C574.863 403.818 575.025 403.635 575.228 403.51C575.432 403.384 575.668 403.322 575.906 403.331C576.066 403.334 576.223 403.37 576.368 403.435C576.514 403.501 576.644 403.595 576.753 403.711C576.861 403.828 576.945 403.966 577 404.115C577.055 404.265 577.079 404.424 577.071 404.584Z" fill="#263238"/>
<path d="M590.764 304.307C590.598 304.307 590.437 304.25 590.309 304.146C590.18 304.041 590.091 303.895 590.057 303.732C590.035 303.638 590.032 303.539 590.049 303.443C590.065 303.347 590.101 303.256 590.153 303.173C590.205 303.091 590.273 303.02 590.352 302.964C590.432 302.908 590.522 302.869 590.617 302.848L594.273 302.067C594.368 302.045 594.468 302.043 594.564 302.06C594.661 302.078 594.753 302.114 594.836 302.168C594.918 302.221 594.989 302.291 595.044 302.372C595.099 302.454 595.138 302.545 595.157 302.642C595.176 302.737 595.177 302.834 595.158 302.929C595.14 303.024 595.103 303.115 595.05 303.196C594.996 303.276 594.928 303.346 594.847 303.4C594.767 303.454 594.677 303.492 594.582 303.511L590.927 304.293L590.764 304.307Z" fill="#263238"/>
<path d="M602.984 290.732C601.245 295.241 599.769 299.848 598.562 304.528C597.456 309.732 597.397 321.376 597.397 321.376" fill="#263238"/>
<path d="M597.397 322.113C597.202 322.106 597.016 322.024 596.879 321.884C596.742 321.744 596.664 321.557 596.66 321.361C596.66 320.89 596.749 309.569 597.854 304.381C599.054 299.66 600.531 295.014 602.276 290.466C602.306 290.369 602.355 290.28 602.421 290.202C602.487 290.125 602.568 290.063 602.659 290.018C602.75 289.974 602.849 289.949 602.951 289.944C603.052 289.94 603.153 289.957 603.248 289.993C603.342 290.03 603.428 290.086 603.5 290.157C603.572 290.228 603.629 290.314 603.666 290.408C603.704 290.502 603.721 290.603 603.718 290.705C603.715 290.806 603.691 290.905 603.647 290.997C601.91 295.472 600.434 300.044 599.225 304.69C598.149 309.761 598.075 321.258 598.061 321.376C598.062 321.56 597.994 321.737 597.872 321.873C597.749 322.009 597.58 322.095 597.397 322.113Z" fill="#263238"/>
<path d="M327.891 449.334C329.94 416.317 326.182 356.281 388.252 364.24C454.773 372.745 435.744 450.543 435.744 450.543L327.891 449.334Z" fill="#263238"/>
<path d="M370.726 429.494C385.688 429.494 397.818 417.365 397.818 402.402C397.818 387.439 385.688 375.31 370.726 375.31C355.763 375.31 343.634 387.439 343.634 402.402C343.634 417.365 355.763 429.494 370.726 429.494Z" fill="white"/>
<path d="M374.293 375.354C361.454 373.173 347.761 382.621 346.39 392.202L397.258 396.889C395.459 385.967 384.463 377.093 374.293 375.354Z" fill="#263238"/>
<path d="M391.465 401.724C391.096 408.814 387.235 414.371 382.842 414.135C378.45 413.899 375.177 407.988 375.472 400.869C375.767 393.75 379.702 388.222 384.095 388.458C388.487 388.694 391.819 394.649 391.465 401.724Z" fill="#263238"/>
<path d="M370.726 430.968C365.076 430.968 359.553 429.293 354.855 426.154C350.158 423.015 346.496 418.554 344.334 413.334C342.172 408.114 341.606 402.37 342.709 396.829C343.811 391.288 346.531 386.198 350.527 382.203C354.522 378.208 359.612 375.487 365.153 374.385C370.694 373.282 376.438 373.848 381.658 376.01C386.877 378.172 391.339 381.834 394.478 386.531C397.617 391.229 399.292 396.752 399.292 402.402C399.284 409.976 396.272 417.237 390.916 422.593C385.561 427.948 378.3 430.96 370.726 430.968ZM370.726 376.799C365.658 376.799 360.705 378.301 356.492 381.117C352.278 383.933 348.995 387.934 347.056 392.616C345.118 397.298 344.611 402.45 345.601 407.42C346.591 412.39 349.032 416.954 352.616 420.537C356.201 424.119 360.767 426.558 365.737 427.544C370.707 428.531 375.859 428.022 380.54 426.08C385.22 424.139 389.22 420.853 392.034 416.639C394.847 412.424 396.347 407.469 396.344 402.402C396.336 395.611 393.634 389.101 388.831 384.301C384.028 379.501 377.516 376.802 370.726 376.799Z" fill="#27AAE1"/>
<path opacity="0.3" d="M428.182 448.509H428.005C427.911 448.488 427.821 448.448 427.742 448.392C427.663 448.336 427.596 448.265 427.545 448.182C427.494 448.1 427.46 448.008 427.446 447.912C427.431 447.816 427.436 447.718 427.46 447.624C427.46 447.433 432.206 427.445 427.327 407.237C427.28 407.041 427.313 406.835 427.418 406.664C427.523 406.492 427.692 406.37 427.887 406.323C428.083 406.276 428.289 406.309 428.46 406.414C428.632 406.519 428.754 406.687 428.801 406.883C433.769 427.519 428.978 447.772 428.934 447.963C428.89 448.127 428.792 448.27 428.655 448.369C428.518 448.469 428.351 448.518 428.182 448.509Z" fill="white"/>
<path opacity="0.3" d="M424.07 396.152C423.928 396.151 423.79 396.11 423.67 396.034C423.551 395.959 423.454 395.852 423.392 395.725C421.56 391.675 419.211 387.88 416.405 384.434C416.283 384.283 416.225 384.09 416.244 383.897C416.264 383.704 416.358 383.526 416.508 383.402C416.583 383.339 416.67 383.292 416.764 383.263C416.857 383.235 416.956 383.225 417.053 383.234C417.15 383.244 417.245 383.273 417.331 383.319C417.417 383.366 417.493 383.429 417.555 383.505C420.43 387.052 422.843 390.95 424.733 395.106C424.775 395.193 424.799 395.287 424.804 395.383C424.809 395.48 424.794 395.576 424.761 395.667C424.729 395.758 424.678 395.841 424.612 395.911C424.546 395.982 424.467 396.039 424.379 396.079C424.282 396.124 424.177 396.149 424.07 396.152Z" fill="white"/>
<path d="M189.748 604.222H189.203C187.248 604.167 185.395 603.338 184.052 601.918C182.708 600.497 181.984 598.6 182.039 596.646C182.094 594.691 182.923 592.838 184.344 591.495C185.764 590.151 187.661 589.427 189.615 589.482H189.748C194.008 589.482 204.252 584.308 225.684 550.524C226.253 549.627 227.009 548.863 227.901 548.286C228.792 547.708 229.798 547.33 230.85 547.177C231.901 547.025 232.973 547.101 233.992 547.402C235.011 547.702 235.953 548.219 236.754 548.918C253.585 563.386 271.941 575.98 291.498 586.475C292.403 586.887 293.216 587.477 293.887 588.211C294.557 588.945 295.073 589.807 295.402 590.745C295.731 591.683 295.867 592.679 295.801 593.671C295.735 594.663 295.469 595.631 295.02 596.518C294.57 597.405 293.945 598.191 293.183 598.83C292.422 599.469 291.539 599.948 290.587 600.236C289.636 600.525 288.636 600.618 287.647 600.51C286.659 600.402 285.703 600.096 284.836 599.608C266.659 589.95 249.478 578.525 233.541 565.5C215.573 592.548 202.248 604.222 189.748 604.222Z" fill="#263238"/>
<path d="M235.354 547.591H234.72C233.562 547.423 232.517 546.803 231.815 545.866C231.113 544.93 230.812 543.753 230.976 542.594C232.022 535.224 230.725 507.764 221.424 486.391C221.012 485.446 220.942 484.387 221.227 483.397C221.513 482.406 222.135 481.547 222.987 480.966C243.181 467.214 286.192 465.563 288.02 465.504C288.6 465.485 289.179 465.58 289.723 465.784C290.267 465.988 290.765 466.298 291.19 466.695C291.614 467.092 291.956 467.568 292.196 468.098C292.436 468.627 292.57 469.198 292.589 469.779C292.608 470.359 292.513 470.938 292.309 471.482C292.105 472.026 291.795 472.524 291.398 472.949C291.001 473.373 290.525 473.715 289.995 473.955C289.466 474.195 288.895 474.329 288.314 474.348C287.917 474.348 250.315 475.822 231.005 486.435C239.23 507.719 241.102 534.237 239.731 543.832C239.573 544.879 239.043 545.834 238.24 546.524C237.437 547.214 236.413 547.592 235.354 547.591Z" fill="#263238"/>
<path d="M242.783 541.872C239.835 534.929 226.569 535.711 218.801 541.665C214.644 544.835 209.013 554.401 208.483 557.879C208.306 558.706 208.332 559.563 208.56 560.377C208.787 561.191 209.209 561.938 209.789 562.553C210.369 563.168 211.09 563.632 211.89 563.907C212.689 564.182 213.543 564.258 214.379 564.129C219.464 563.687 226.436 556.302 226.436 556.302C221.793 560.857 227.792 564.07 236.754 557.481C241.648 553.811 246.07 549.64 242.783 541.872Z" fill="#27AAE1"/>
<path d="M496.311 451.28C496.243 451.295 496.172 451.295 496.104 451.28C496.01 451.255 495.922 451.21 495.846 451.15C495.769 451.09 495.706 451.015 495.659 450.93C495.612 450.844 495.583 450.75 495.573 450.654C495.564 450.557 495.574 450.459 495.603 450.366C497.563 443.527 499.701 439.355 502.516 437.1C502.075 435.515 502.158 433.829 502.752 432.295C503.439 430.503 504.651 428.962 506.231 427.873C505.801 427.409 505.496 426.844 505.344 426.231C505.192 425.617 505.198 424.975 505.361 424.365C505.895 422.518 506.999 420.888 508.515 419.707C507.968 419.095 507.669 418.302 507.675 417.481C507.675 413.059 515.797 406.397 525.009 405.129C525.205 405.102 525.403 405.153 525.561 405.272C525.718 405.391 525.822 405.567 525.85 405.763C525.877 405.958 525.825 406.156 525.707 406.314C525.588 406.472 525.411 406.576 525.216 406.603C516.46 407.797 509.12 414.135 509.149 417.481C509.146 417.98 509.336 418.461 509.68 418.822C511.663 417.478 513.893 416.541 516.242 416.068C518.59 415.595 521.01 415.594 523.358 416.066C527.884 416.936 529.726 417.894 529.52 419.265C529.107 421.844 519.482 422.389 513.026 421.623C511.869 421.518 510.744 421.193 509.709 420.665C508.319 421.654 507.285 423.065 506.761 424.689C506.635 425.118 506.636 425.576 506.764 426.005C506.892 426.434 507.142 426.816 507.483 427.106C510.225 425.632 514.072 425.102 519.158 426.222C525.835 427.696 526.085 428.507 526.247 428.993C526.299 429.165 526.304 429.348 526.259 429.522C526.215 429.696 526.125 429.854 525.997 429.981C524.597 431.455 514.352 430.762 509.208 429.494C508.587 429.352 507.987 429.129 507.425 428.831C505.902 429.756 504.73 431.161 504.093 432.825C503.668 433.902 503.55 435.076 503.754 436.216C504.017 436.059 504.287 435.916 504.565 435.788C507.616 434.314 511.301 434.579 515.856 436.525C518.804 437.807 520.278 438.957 520.425 440.122C520.432 440.42 520.357 440.715 520.209 440.975C520.061 441.234 519.845 441.449 519.585 441.596C517.33 443.07 509.459 442.863 505.361 440.682C504.419 440.17 503.634 439.41 503.091 438.486C500.688 440.697 498.743 444.632 496.974 450.808C496.92 450.942 496.829 451.058 496.712 451.142C496.594 451.225 496.455 451.273 496.311 451.28ZM504.3 437.527C504.71 438.29 505.335 438.915 506.098 439.326C509.429 441.094 515.974 441.492 518.421 440.505C518.922 440.299 518.995 440.136 518.995 440.136C518.995 440.136 518.922 439.311 515.31 437.763C511.183 435.994 507.94 435.744 505.243 436.997C504.918 437.154 504.603 437.331 504.3 437.527ZM509.223 427.843L509.591 427.946C514.391 429.053 519.331 429.425 524.243 429.052C522.501 428.406 520.705 427.912 518.877 427.578C515.703 426.718 512.345 426.81 509.223 427.843ZM511.08 419.559C511.76 419.803 512.468 419.962 513.188 420.031C520.558 420.901 527.029 419.884 527.928 418.955C527.677 418.734 526.69 418.1 523.034 417.407C518.921 416.587 514.649 417.356 511.08 419.559Z" fill="#263238"/>
<path d="M304.425 601.761C305.398 601.451 305.074 600.508 303.983 600.508H284.025C246.025 596.484 219.479 601.879 236.209 603.146C252.938 604.414 235.029 604.148 222.81 608.777C210.59 613.405 313.682 614.57 323.042 608.777C331.65 603.441 290.953 606.079 304.425 601.761Z" fill="#263238"/>
<path d="M447.315 607.642L273.678 601.878L266.47 433.518L471.518 438.102L447.315 607.642Z" fill="#27AAE1"/>
<path d="M327.891 604.414C327.706 604.414 327.527 604.345 327.39 604.219C327.253 604.093 327.169 603.921 327.154 603.736L313.24 434.638C313.227 434.444 313.291 434.252 313.418 434.103C313.544 433.955 313.724 433.861 313.918 433.842C314.112 433.834 314.302 433.899 314.449 434.025C314.597 434.151 314.692 434.328 314.714 434.521L328.702 603.618C328.71 603.715 328.699 603.812 328.669 603.905C328.639 603.997 328.592 604.083 328.529 604.157C328.466 604.231 328.389 604.292 328.302 604.336C328.215 604.38 328.121 604.406 328.024 604.414H327.891Z" fill="#263238"/>
<path d="M447.315 607.642L493.982 600.537L508.677 443.984L471.518 438.102L447.315 607.642Z" fill="#27AAE1"/>
<path opacity="0.2" d="M447.315 607.642L493.982 600.537L508.677 443.984L471.518 438.102L447.315 607.642Z" fill="black"/>
<path d="M288.506 569.436L284.231 469.395C284.126 466.924 284.528 464.457 285.414 462.148C286.3 459.838 287.65 457.735 289.381 455.968C291.113 454.201 293.188 452.808 295.479 451.874C297.769 450.941 300.227 450.488 302.701 450.543L432.501 453.491C435.057 453.549 437.571 454.148 439.879 455.248C442.186 456.349 444.234 457.926 445.888 459.876C447.541 461.826 448.762 464.104 449.471 466.561C450.179 469.017 450.358 471.596 449.997 474.127L435.611 574.86C434.989 579.272 432.76 583.299 429.351 586.168C425.943 589.038 421.595 590.549 417.142 590.411L306.017 586.726C301.455 586.585 297.115 584.725 293.867 581.518C290.62 578.311 288.705 573.995 288.506 569.436Z" fill="#263238"/>
<path d="M302.539 481.246L322.614 481.88L322.452 487.054L309.879 486.656L309.761 490.518L321.42 490.886L321.258 495.839L309.599 495.456L309.452 500.246L322.379 500.659L322.202 506.142L301.757 505.494L302.539 481.246Z" fill="white"/>
<path d="M326.344 506.275L327.11 482.027L339.61 482.425C341.402 482.416 343.185 482.675 344.901 483.192C346.118 483.599 347.158 484.411 347.849 485.491C348.361 486.278 348.706 487.163 348.862 488.089C349.018 489.015 348.981 489.963 348.754 490.874C348.527 491.786 348.115 492.64 347.544 493.385C346.972 494.131 346.253 494.75 345.432 495.205C344.594 495.637 343.694 495.935 342.764 496.089C343.449 496.31 344.099 496.628 344.695 497.033C345.125 497.432 345.51 497.877 345.845 498.359C346.224 498.818 346.56 499.312 346.847 499.833L350.252 506.982L341.791 506.702L338.018 499.17C337.718 498.451 337.277 497.799 336.72 497.254C336.191 496.871 335.56 496.656 334.907 496.635H334.244L333.935 506.466L326.344 506.275ZM334.333 492.095L337.487 492.198C338.157 492.157 338.822 492.064 339.477 491.918C339.97 491.843 340.417 491.585 340.73 491.196C341.049 490.803 341.23 490.316 341.246 489.81C341.274 489.473 341.226 489.134 341.106 488.818C340.986 488.502 340.797 488.216 340.553 487.982C339.73 487.451 338.759 487.198 337.782 487.26L334.48 487.157L334.333 492.095Z" fill="white"/>
<path d="M352.699 507.056L353.465 482.809L365.95 483.207C367.742 483.196 369.526 483.455 371.242 483.973C372.46 484.376 373.502 485.189 374.19 486.273C374.938 487.454 375.289 488.843 375.192 490.238C375.196 491.414 374.882 492.57 374.282 493.582C373.683 494.594 372.821 495.425 371.787 495.986C370.948 496.415 370.048 496.714 369.119 496.871C369.8 497.09 370.446 497.408 371.035 497.814C371.476 498.202 371.867 498.642 372.2 499.126C372.577 499.587 372.912 500.08 373.202 500.6L376.607 507.734L368.146 507.469L364.373 499.937C364.071 499.218 363.63 498.567 363.076 498.02C362.549 497.623 361.908 497.406 361.248 497.401H360.599L360.275 507.248L352.699 507.056ZM360.673 492.876L363.842 492.965C364.512 492.939 365.179 492.85 365.832 492.699C366.322 492.626 366.765 492.368 367.07 491.977C367.4 491.591 367.583 491.1 367.586 490.591C367.618 490.255 367.574 489.916 367.456 489.6C367.339 489.283 367.152 488.998 366.908 488.764C366.086 488.219 365.105 487.965 364.122 488.041L360.835 487.938L360.673 492.876Z" fill="white"/>
<path d="M377.816 495.795C377.702 494.103 377.964 492.406 378.584 490.828C379.204 489.249 380.165 487.828 381.4 486.665C382.634 485.502 384.111 484.628 385.724 484.103C387.337 483.579 389.046 483.419 390.728 483.634C392.426 483.578 394.117 483.863 395.702 484.474C397.287 485.084 398.734 486.006 399.955 487.186C401.045 488.442 401.869 489.906 402.376 491.49C402.883 493.074 403.062 494.744 402.903 496.399C402.915 498.807 402.349 501.183 401.252 503.327C400.258 505.081 398.772 506.506 396.978 507.425C394.862 508.436 392.522 508.883 390.183 508.722C387.85 508.741 385.543 508.238 383.432 507.248C381.634 506.272 380.166 504.784 379.216 502.973C378.101 500.753 377.617 498.27 377.816 495.795ZM385.304 496.06C385.083 497.918 385.504 499.796 386.498 501.381C386.962 501.9 387.527 502.32 388.157 502.616C388.788 502.912 389.471 503.078 390.167 503.104C390.863 503.13 391.558 503.016 392.208 502.768C392.859 502.52 393.454 502.144 393.956 501.661C395.049 500.006 395.567 498.038 395.43 496.06C395.628 494.283 395.195 492.494 394.207 491.004C393.76 490.489 393.207 490.076 392.587 489.794C391.966 489.512 391.292 489.366 390.61 489.368C389.922 489.319 389.232 489.425 388.591 489.681C387.95 489.936 387.376 490.333 386.91 490.842C385.794 492.347 385.227 494.188 385.304 496.06Z" fill="white"/>
<path d="M406.691 508.84L407.458 484.578L419.943 484.975C421.734 484.973 423.517 485.231 425.234 485.742C426.447 486.156 427.486 486.966 428.182 488.041C428.927 489.224 429.278 490.612 429.185 492.006C429.192 493.185 428.879 494.344 428.279 495.359C427.679 496.374 426.816 497.207 425.78 497.77C424.937 498.187 424.038 498.48 423.112 498.639C423.794 498.864 424.439 499.187 425.028 499.598C425.469 499.985 425.86 500.426 426.192 500.909C426.572 501.368 426.908 501.862 427.195 502.383L430.6 509.532L422.139 509.267L418.365 501.72C418.065 501.006 417.624 500.359 417.068 499.819C416.54 499.423 415.901 499.201 415.241 499.185H414.592L414.268 509.031L406.691 508.84ZM414.666 494.645L417.835 494.748C418.505 494.723 419.171 494.634 419.825 494.483C420.313 494.404 420.754 494.147 421.063 493.761C421.411 493.35 421.595 492.825 421.579 492.287C421.611 491.953 421.566 491.616 421.449 491.302C421.331 490.988 421.144 490.705 420.901 490.474C420.079 489.929 419.098 489.675 418.115 489.751L414.828 489.648L414.666 494.645Z" fill="white"/>
<path d="M418.616 550.038C418.339 550.043 418.065 549.989 417.811 549.88C417.556 549.771 417.328 549.608 417.142 549.404L404.525 535.593L390.905 548.033C390.527 548.379 390.028 548.561 389.517 548.539C389.006 548.517 388.524 548.292 388.178 547.915L375.56 534.104L361.941 546.544C361.563 546.89 361.064 547.072 360.553 547.05C360.041 547.028 359.56 546.804 359.214 546.427L346.582 532.615L332.977 545.056C332.778 545.236 332.545 545.373 332.291 545.459C332.038 545.545 331.769 545.578 331.503 545.557C330.99 545.526 330.51 545.299 330.161 544.923L317.544 531.126L303.939 543.552C303.559 543.899 303.057 544.081 302.544 544.059C302.03 544.037 301.546 543.812 301.197 543.434C301.025 543.247 300.892 543.028 300.805 542.789C300.719 542.551 300.68 542.297 300.693 542.043C300.705 541.789 300.768 541.541 300.877 541.311C300.986 541.082 301.14 540.877 301.33 540.707L316.365 526.955C316.744 526.608 317.246 526.426 317.76 526.448C318.273 526.47 318.758 526.695 319.106 527.073L331.724 540.884L345.329 528.444C345.715 528.105 346.215 527.925 346.729 527.943C347.242 527.97 347.723 528.198 348.07 528.576L360.688 542.388L374.308 529.947C374.493 529.774 374.712 529.64 374.95 529.552C375.189 529.464 375.442 529.425 375.696 529.436C375.949 529.447 376.198 529.508 376.428 529.616C376.658 529.724 376.864 529.877 377.034 530.065L389.652 543.877L403.272 531.436C403.649 531.09 404.148 530.908 404.659 530.931C405.171 530.953 405.652 531.177 405.999 531.554L420.09 546.854C420.342 547.135 420.506 547.484 420.563 547.857C420.62 548.231 420.567 548.613 420.411 548.956C420.255 549.3 420.002 549.591 419.683 549.794C419.364 549.996 418.994 550.101 418.616 550.097V550.038Z" fill="white"/>
<path d="M185.355 611.224L176.128 606.816L167.903 566.768L172.37 561.859L185.355 611.224Z" fill="#27AAE1"/>
<path d="M185.356 611.224L197.605 604.06L187.11 571.072L172.37 561.859L185.356 611.224Z" fill="#27AAE1"/>
<path opacity="0.2" d="M185.356 611.224L197.605 604.06L187.11 571.072L172.37 561.859L185.356 611.224Z" fill="black"/>
<path d="M386.188 618.505H385.171C383.216 618.452 381.363 617.625 380.018 616.206C378.673 614.786 377.947 612.891 378 610.936C378.053 608.982 378.88 607.128 380.299 605.783C381.719 604.438 383.614 603.712 385.569 603.765C396.919 604.134 420.945 597.162 434.683 583.837C435.512 583.023 436.522 582.417 437.631 582.068C460.905 575.081 469.557 589.187 469.911 589.792L457.235 597.294C457.279 597.388 457.334 597.477 457.397 597.56C457.264 597.368 453.963 593.138 443.468 595.732C426.237 611.445 399.793 618.505 386.188 618.505Z" fill="#263238"/>
<path d="M385.289 628.293L358.447 626.612L356.339 577.115L392.408 578.457L385.289 628.293Z" fill="#27AAE1"/>
<path d="M385.289 628.292L391.568 622.043L395.459 591.192L392.408 578.457L385.289 628.292Z" fill="#27AAE1"/>
<path opacity="0.2" d="M385.289 628.292L391.568 622.043L395.459 591.192L392.408 578.457L385.289 628.292Z" fill="black"/>
<path d="M540.825 609.558C539.862 609.557 538.925 609.241 538.157 608.659C522.828 597.014 502.118 576.334 494.173 556.391C494.054 556.102 493.97 555.8 493.923 555.492C490.046 532.438 486.346 483.929 486.184 481.88C486.14 481.299 486.212 480.716 486.394 480.163C486.576 479.609 486.865 479.098 487.245 478.656C488.012 477.765 489.102 477.214 490.274 477.126C491.447 477.038 492.607 477.42 493.498 478.187C494.39 478.954 494.94 480.044 495.028 481.217C495.028 481.703 498.816 530.684 502.59 553.546C510.52 572.944 532.07 592.858 543.537 601.613C544.276 602.173 544.819 602.951 545.092 603.837C545.364 604.723 545.351 605.672 545.054 606.551C544.758 607.429 544.193 608.192 543.439 608.731C542.686 609.271 541.782 609.56 540.855 609.558H540.825Z" fill="#263238"/>
<path d="M561.27 611.784C557.85 611.784 553.973 610.236 549.743 607.185C548.793 606.497 548.155 605.46 547.97 604.301C547.785 603.143 548.067 601.959 548.755 601.009C549.443 600.059 550.481 599.421 551.639 599.236C552.797 599.051 553.981 599.333 554.931 600.021C558.587 602.66 560.577 602.969 561.27 602.969C562.442 602.969 563.567 603.435 564.396 604.264C565.226 605.094 565.692 606.218 565.692 607.391C565.692 608.564 565.226 609.689 564.396 610.518C563.567 611.347 562.442 611.813 561.27 611.813V611.784Z" fill="#263238"/>
<path d="M550.981 607.052C555.713 593.005 575.111 595.776 581.803 597.869C587.519 599.528 593.002 601.906 598.12 604.944C601.731 607.303 601.79 611.268 596.97 613.523C591.074 616.294 576.098 613.833 576.098 613.833C583.822 617.208 576.098 622.677 562.523 617.311C558.115 615.572 549.316 612.211 550.981 607.052Z" fill="#27AAE1"/>
<path d="M503.902 487.894C502.147 499.833 492.257 508.633 484.209 507.454C476.161 506.275 475.837 495.662 477.591 483.664C479.345 471.665 482.529 463.028 490.577 464.207C498.625 465.386 505.656 475.999 503.902 487.894Z" fill="#263238"/>
<path d="M309.363 440.284C310.031 440.284 310.572 439.743 310.572 439.075C310.572 438.408 310.031 437.866 309.363 437.866C308.695 437.866 308.154 438.408 308.154 439.075C308.154 439.743 308.695 440.284 309.363 440.284Z" fill="#263238"/>
<path d="M321.641 447.772C321.641 448.011 321.571 448.244 321.438 448.443C321.305 448.642 321.116 448.797 320.895 448.888C320.674 448.98 320.431 449.004 320.197 448.957C319.963 448.911 319.747 448.795 319.578 448.626C319.409 448.457 319.294 448.242 319.247 448.007C319.201 447.773 319.225 447.53 319.316 447.309C319.408 447.088 319.563 446.9 319.761 446.767C319.96 446.634 320.194 446.563 320.433 446.563C320.753 446.563 321.061 446.69 321.287 446.917C321.514 447.144 321.641 447.451 321.641 447.772Z" fill="#263238"/>
<path d="M322.998 590.602C322.998 590.841 322.927 591.075 322.794 591.274C322.661 591.473 322.472 591.627 322.252 591.719C322.031 591.81 321.788 591.834 321.553 591.788C321.319 591.741 321.103 591.626 320.934 591.457C320.765 591.288 320.65 591.073 320.604 590.838C320.557 590.604 320.581 590.361 320.672 590.14C320.764 589.919 320.919 589.73 321.118 589.597C321.316 589.464 321.55 589.394 321.789 589.394C322.11 589.394 322.417 589.521 322.644 589.748C322.87 589.974 322.998 590.282 322.998 590.602Z" fill="#263238"/>
<path d="M334.067 599.314C334.067 599.553 333.996 599.786 333.864 599.985C333.731 600.184 333.542 600.339 333.321 600.43C333.1 600.522 332.857 600.546 332.623 600.499C332.388 600.453 332.173 600.337 332.004 600.168C331.835 599.999 331.72 599.784 331.673 599.549C331.626 599.315 331.65 599.072 331.742 598.851C331.833 598.63 331.988 598.442 332.187 598.309C332.386 598.176 332.62 598.105 332.859 598.105C333.179 598.105 333.487 598.232 333.713 598.459C333.94 598.686 334.067 598.993 334.067 599.314Z" fill="#263238"/>
<path d="M121.62 613.803C119.498 613.704 117.425 613.129 115.555 612.121C113.685 611.114 112.065 609.699 110.815 607.981C110.754 607.902 110.71 607.811 110.684 607.714C110.659 607.617 110.654 607.517 110.669 607.418C110.685 607.319 110.72 607.224 110.773 607.139C110.825 607.054 110.895 606.981 110.977 606.924C111.059 606.867 111.152 606.827 111.25 606.807C111.348 606.787 111.449 606.787 111.547 606.808C111.645 606.828 111.738 606.868 111.82 606.925C111.902 606.982 111.971 607.056 112.024 607.141C114.78 611.12 120.868 613.228 123.521 611.975C123.787 611.863 124.024 611.691 124.214 611.474C122.873 610.884 121.699 609.973 120.794 608.821C119.889 607.67 119.282 606.313 119.026 604.871C118.687 602.999 118.421 600.449 119.954 600.124C122.077 599.653 124.848 604.767 125.85 608.644C126.032 609.286 126.097 609.955 126.042 610.619C126.892 610.873 127.786 610.943 128.666 610.826C129.062 610.795 129.447 610.682 129.798 610.495C130.148 610.307 130.455 610.048 130.7 609.735C129.73 609.003 128.925 608.074 128.338 607.01C127.751 605.946 127.396 604.77 127.295 603.559C126.735 599.52 127.162 598.827 127.604 598.473C127.748 598.364 127.919 598.296 128.098 598.278C128.278 598.259 128.459 598.291 128.621 598.37C130.199 599.034 132.1 604.753 132.468 607.996C132.513 608.333 132.513 608.675 132.468 609.013C133.104 609.257 133.778 609.387 134.458 609.396C135.708 609.444 136.944 609.121 138.011 608.467C137.804 608.335 137.613 608.187 137.421 608.04C135.947 606.728 135.269 604.635 135.534 601.657C135.741 599.343 136.257 598.076 137.185 597.678C137.485 597.557 137.813 597.527 138.13 597.59C138.446 597.652 138.738 597.806 138.969 598.031C139.964 599.13 140.707 600.432 141.148 601.848C141.588 603.263 141.715 604.757 141.519 606.227C141.391 606.839 141.135 607.416 140.767 607.922C143.479 608.394 147.282 607.627 150.569 606.816C150.666 606.793 150.766 606.789 150.865 606.805C150.963 606.82 151.057 606.855 151.142 606.907C151.227 606.959 151.301 607.027 151.359 607.108C151.418 607.188 151.46 607.28 151.483 607.376C151.506 607.473 151.51 607.574 151.495 607.672C151.479 607.77 151.444 607.865 151.392 607.949C151.34 608.034 151.272 608.108 151.192 608.167C151.111 608.225 151.02 608.267 150.923 608.29C146.928 609.278 142.624 610.089 139.588 609.204C138.106 610.331 136.291 610.933 134.429 610.914C133.603 610.903 132.785 610.749 132.012 610.457C131.669 610.987 131.209 611.432 130.667 611.757C130.125 612.081 129.516 612.277 128.887 612.329C127.779 612.472 126.653 612.376 125.585 612.049C125.241 612.628 124.726 613.087 124.111 613.361C123.32 613.68 122.472 613.83 121.62 613.803ZM120.352 601.598C120.148 602.6 120.189 603.637 120.47 604.62C120.678 605.799 121.167 606.91 121.896 607.859C122.625 608.809 123.571 609.568 124.656 610.074C124.636 609.724 124.576 609.378 124.479 609.042C123.33 604.826 121.119 601.923 120.352 601.598ZM128.562 600.316C128.572 601.333 128.656 602.348 128.813 603.352C128.975 605.15 129.769 606.831 131.053 608.099C130.691 605.377 129.847 602.742 128.562 600.316ZM137.834 599.034C137.834 599.034 137.274 599.314 137.067 601.775C136.861 604.237 137.288 605.932 138.438 606.92C138.71 607.14 139.007 607.328 139.323 607.48C139.71 607.065 139.984 606.557 140.119 606.006C140.381 603.686 139.754 601.352 138.364 599.476C138.055 599.093 137.878 599.034 137.834 599.034Z" fill="#263238"/>
<path d="M337.354 624.947L341.349 618.019L337.354 611.091H333.08L335.497 618.019L333.08 624.947H337.354Z" fill="#263238"/>
<path d="M333.36 621.63C332.867 621.661 332.373 621.592 331.909 621.425C331.444 621.258 331.019 620.998 330.659 620.66C330.299 620.322 330.012 619.914 329.816 619.461C329.619 619.008 329.518 618.52 329.518 618.026C329.518 617.532 329.619 617.044 329.816 616.591C330.012 616.138 330.299 615.73 330.659 615.392C331.019 615.054 331.444 614.794 331.909 614.627C332.373 614.46 332.867 614.391 333.36 614.422L326.58 613.066L324.767 618.549L327.803 623.178L333.36 621.63Z" fill="#263238"/>
<path d="M333.95 611.091H325.946L321.951 618.019L325.946 624.947H333.95L337.944 618.019L333.95 611.091ZM329.955 621.63C329.24 621.633 328.54 621.424 327.945 621.029C327.349 620.634 326.884 620.071 326.608 619.411C326.333 618.751 326.259 618.025 326.397 617.323C326.534 616.622 326.877 615.977 327.381 615.47C327.886 614.964 328.529 614.619 329.23 614.478C329.931 614.337 330.658 614.408 331.319 614.681C331.98 614.954 332.544 615.417 332.942 616.011C333.339 616.605 333.552 617.304 333.552 618.019C333.552 618.974 333.173 619.89 332.499 620.567C331.825 621.244 330.91 621.626 329.955 621.63Z" fill="#27AAE1"/>
<path d="M615.97 610.619L613.007 605.475L615.97 600.331H619.139L617.356 605.475L619.139 610.619H615.97Z" fill="#27AAE1"/>
<path d="M618.933 608.158C619.301 608.185 619.67 608.136 620.019 608.014C620.367 607.892 620.686 607.699 620.957 607.448C621.227 607.197 621.443 606.893 621.59 606.555C621.738 606.216 621.814 605.851 621.814 605.482C621.814 605.113 621.738 604.748 621.59 604.41C621.443 604.072 621.227 603.767 620.957 603.516C620.686 603.265 620.367 603.073 620.019 602.951C619.67 602.829 619.301 602.78 618.933 602.807L623.974 601.805L625.315 605.873L623.075 609.307L618.933 608.158Z" fill="#27AAE1"/>
<path d="M618.505 600.331H624.401L627.349 605.475L624.401 610.619H618.505L615.557 605.475L618.505 600.331ZM621.453 608.158C621.984 608.161 622.504 608.006 622.948 607.713C623.391 607.42 623.737 607.002 623.942 606.512C624.147 606.022 624.203 605.482 624.101 604.961C623.999 604.439 623.745 603.96 623.37 603.583C622.995 603.207 622.517 602.95 621.997 602.845C621.476 602.74 620.936 602.793 620.445 602.995C619.954 603.198 619.534 603.542 619.238 603.983C618.943 604.425 618.785 604.944 618.785 605.475C618.783 605.828 618.851 606.178 618.985 606.504C619.12 606.83 619.317 607.127 619.567 607.376C619.816 607.626 620.113 607.823 620.439 607.957C620.765 608.092 621.115 608.16 621.468 608.158H621.453Z" fill="#263238"/>
<path d="M505.582 617.459H512.245C513.079 617.455 513.877 617.121 514.466 616.53C515.054 615.938 515.384 615.138 515.384 614.304C515.384 613.47 515.054 612.67 514.466 612.079C513.877 611.488 513.079 611.154 512.245 611.15H505.582C504.746 611.15 503.943 611.482 503.352 612.074C502.76 612.665 502.428 613.468 502.428 614.304C502.428 615.141 502.76 615.943 503.352 616.535C503.943 617.126 504.746 617.459 505.582 617.459Z" fill="#263238"/>
<path d="M494.866 611.504C495.485 610.379 496.418 609.46 497.553 608.86C498.687 608.26 499.972 608.005 501.25 608.126C502.527 608.248 503.741 608.741 504.742 609.544C505.743 610.347 506.486 611.426 506.882 612.647C507.277 613.868 507.306 615.178 506.965 616.415C506.625 617.652 505.93 618.763 504.966 619.61C504.002 620.457 502.811 621.003 501.54 621.181C500.269 621.36 498.974 621.162 497.814 620.613C496.22 619.791 495.016 618.372 494.463 616.666C493.911 614.959 494.056 613.104 494.866 611.504Z" fill="#27AAE1"/>
<path d="M496.664 620.611L498.49 621.472L504.838 608.006L503.012 607.145L496.664 620.611Z" fill="#263238"/>
</svg>
