<svg id="Layer_1" data-name="Layer 1" xmlns="http://www.w3.org/2000/svg" viewBox="0 0 412.18 128"><defs><style>.cls-1{fill:#2baae2;}.cls-2{fill:#fff;}.cls-3{font-size:51.54px;fill:#231f20;font-family:Montserrat-Bold, Montserrat;font-weight:700;}.cls-4{font-size:30.82px;font-family:Montserrat-Medium, Montserrat;font-weight:500;}</style></defs><path class="cls-1" d="M105.32,9.76H42.69L11.38,64l31.31,54.24h62.63L136.64,64Zm-1.91,105.16H44.61L15.21,64l29.4-50.92h58.8L132.81,64Z"/><polygon class="cls-1" points="100.62 17.91 47.4 17.91 20.79 64 47.4 110.09 100.62 110.09 127.23 64 100.62 17.91"/><path class="cls-2" d="M54.24,76.35a18.21,18.21,0,0,1,8-14.26V62a21.68,21.68,0,0,1,5.5-2.87,18.92,18.92,0,0,1,6.3-1,7.82,7.82,0,0,0,3.15-.64,8.59,8.59,0,0,0,2.59-1.71,7.92,7.92,0,0,0,2.39-5.7V35.47H93.77V52a17.21,17.21,0,0,1-2.59,8.41A18.19,18.19,0,0,1,85,66.47a13.08,13.08,0,0,1-2.87,1.59A19.67,19.67,0,0,1,74,69.82a7.75,7.75,0,0,0-3.15.64,8.23,8.23,0,0,0-2.59,1.75,8.06,8.06,0,0,0-1.75,2.59A7.75,7.75,0,0,0,65.88,78V92.53H54.24ZM66,35.47V58A20.28,20.28,0,0,0,59,62.09a19.85,19.85,0,0,0-4.78,6.45V35.47ZM82.14,92.53V70A20.46,20.46,0,0,0,89,65.91a19.92,19.92,0,0,0,4.78-6.37v33Z"/><text class="cls-3" transform="translate(147.87 64)">HALVING <tspan class="cls-4"><tspan x="0" y="36.99">TOKEN</tspan></tspan></text></svg>